<svg xmlns="http://www.w3.org/2000/svg" xmlns:xlink="http://www.w3.org/1999/xlink" style="isolation:isolate" viewBox="0 0 1800 2000" width="1800pt" height="2000pt"><g><path d=" M 733.086 395.589 C 733.086 395.589 727.249 337.658 757.55 339.656 C 787.852 341.628 795.868 355.533 792.495 366.662 C 789.097 377.792 759.626 414.631 759.626 414.631 L 733.086 395.589 L 733.086 395.589 Z " fill="rgb(255,178,125)"></path><path d=" M 685.74 703.582 C 632.895 705.709 526.944 674.656 486.992 658.234 C 449.038 642.668 416.195 625.961 388.176 609.617 C 380.627 605.259 373.467 600.9 366.644 596.594 C 294.548 551.116 260.979 511.683 260.979 511.683 C 260.979 511.683 396.141 394.836 450.647 425.423 C 514.622 461.354 624.905 577.37 643.531 565.462 C 664.493 552.05 723.021 387.598 723.021 387.598 C 761.545 380.257 769.899 409.416 769.899 409.416 C 769.899 409.416 760.767 700.573 685.74 703.582 Z " fill="rgb(17,205,239)"></path><path d=" M 462.502 1931.456 C 462.502 1931.456 456.977 1995.535 470.519 2002.202 L 643.895 2001.865 C 643.895 2001.865 643.895 1981.837 616.058 1977.401 C 588.195 1972.939 539.267 1956.647 530.992 1920.327 C 522.715 1884.032 462.502 1931.456 462.502 1931.456 Z " fill="rgb(16,30,54)"></path><path d=" M 589.804 1155.765 C 588.948 1197.663 586.924 1240.91 582.981 1279.746 C 564.25 1464.096 557.686 1686.841 554.989 1729.776 C 550.319 1804.31 535.584 1923.414 535.584 1923.414 C 535.584 1923.414 506.398 1951.147 449.453 1937.916 C 449.453 1937.916 402.289 1766.382 391.756 1585.768 C 391.575 1582.81 391.419 1579.827 391.263 1576.844 C 390.044 1552.976 388.773 1525.658 387.45 1496.239 C 378.785 1299.048 369.368 1006.101 369.368 1006.101 L 586.924 954.994 C 586.924 954.994 591.931 1051.294 589.804 1155.765 Z " fill="rgb(23,43,77)"></path><path d=" M 589.804 1155.765 C 534.649 1250.898 429.555 1426.168 387.45 1496.239 C 378.785 1299.048 369.368 1006.101 369.368 1006.101 L 586.924 954.994 C 586.924 954.994 591.931 1051.294 589.804 1155.765 Z " fill="rgb(19,35,62)"></path><path d=" M 135.986 1124.79 C 135.986 1124.79 122.495 1177.739 124.701 1189.491 C 126.906 1201.269 140.111 1241.117 148.309 1251.002 C 156.533 1260.912 156.87 1208.04 162.344 1199.713 C 167.818 1191.411 164.86 1219.455 169.218 1221.764 C 173.603 1224.047 180.919 1200.517 184.162 1192.163 C 187.43 1183.836 172.487 1154.78 171.113 1133.947 C 169.738 1113.141 135.986 1124.79 135.986 1124.79 Z " fill="rgb(253,168,166)"></path><path d=" M 30.606 1858.609 C 30.606 1858.609 -0.24 1886.782 5.779 1906.784 C 11.798 1926.786 39.634 1940.147 43.396 1964.585 C 47.158 1989.049 62.204 2002.384 75.773 2002.384 C 89.315 2002.384 140.344 2002.384 140.344 2002.384 C 140.344 2002.384 150.333 1985.184 126.232 1979.995 C 102.157 1974.806 93.077 1946.062 94.581 1919.393 C 96.086 1892.697 92.324 1857.13 92.324 1857.13 L 41.139 1845.274 L 30.606 1858.609 L 30.606 1858.609 Z " fill="rgb(16,30,54)"></path><path d=" M 552.654 1010.563 C 552.654 1010.563 348.976 1446.325 240.587 1637.524 C 132.224 1828.722 98.343 1882.087 98.343 1882.087 C 98.343 1882.087 36.261 1857.623 30.606 1840.967 C 30.606 1840.967 72.063 1471.827 144.625 1381.857 C 185.64 1331.009 233.816 1178.414 236.073 1125.049 C 238.33 1071.711 285.91 944.331 285.91 944.331 L 552.654 1010.563 L 552.654 1010.563 Z " fill="rgb(23,43,77)"></path><path d=" M 590.582 987.889 C 590.582 987.889 524.272 1059.258 411.577 1080.817 C 362.13 1090.286 261.731 1099.418 236.826 1064.213 C 230.988 1055.937 230.937 1043.718 232.234 1024.599 C 235.58 974.918 248.085 878.904 191.659 685.915 C 186.419 667.962 182.89 650.736 180.815 634.341 C 168.519 535.602 210.156 465.531 259.033 434.27 C 378.266 358.024 436.533 410.687 436.533 410.687 C 436.533 410.687 504.789 442.597 535.973 535.55 C 598.339 721.482 590.582 987.889 590.582 987.889 Z " fill="rgb(17,205,239)"></path><path d=" M 294.548 414.319 C 294.548 414.319 362.778 436.475 425.067 410.869 C 425.067 410.869 437.078 404.565 427.22 391.049 C 428.284 378 428.076 379.193 428.232 369.646 C 428.984 347.594 427.869 335.22 427.869 335.22 L 382.002 305.334 L 338.495 276.693 C 349.781 367.129 294.548 414.319 294.548 414.319 Z " fill="rgb(253,168,166)"></path><path d=" M 340.857 311.456 C 340.857 311.456 373.492 360.125 428.232 369.646 C 428.984 347.594 427.531 325.024 427.531 325.024 L 382.002 305.334 L 340.857 311.456 L 340.857 311.456 Z " fill="rgb(228,151,149)"></path><path d=" M 468.625 323.597 C 468.625 323.597 358.134 364.821 333.567 296.747 C 308.973 228.673 278.152 188.15 347.653 158.938 C 417.154 129.753 440.321 150.818 454.149 171.52 C 467.976 192.249 496.721 311.119 468.625 323.597 Z " fill="rgb(253,168,166)"></path><path d=" M 264.74 166.591 C 263.469 165.605 260.875 165.138 255.504 165.891 C 255.504 165.891 259.241 162.389 264.896 161.117 C 264.532 153.516 265.881 139.637 277.997 133.929 C 277.997 133.929 271.874 138.936 272.523 146.979 C 284.275 128.922 313.72 111.644 402.575 101.267 C 519.68 87.595 496.28 168.926 483.075 180.678 C 469.896 192.43 427.531 175.723 400.162 183.428 C 372.792 191.133 375.438 232.382 367.084 239.75 C 358.731 247.144 360.521 236.637 346.616 233.394 C 332.71 230.151 335.668 251.554 342.076 264.577 C 348.484 277.601 334.527 299.211 334.527 299.211 C 334.527 299.211 334.527 299.211 313.02 283.619 C 291.539 268.028 258.851 190.459 263.495 171.624 C 263.91 169.964 264.299 168.278 264.74 166.591 Z " fill="rgb(16,30,54)"></path><path d=" M 232.234 1024.599 C 235.58 974.918 248.085 878.904 191.659 685.915 C 186.419 667.962 182.89 650.736 180.815 634.341 L 180.841 634.315 C 222.739 620.513 299.114 651.255 299.114 651.255 C 299.114 651.255 317.067 906.351 232.234 1024.599 Z " fill="rgb(15,185,215)"></path><path d=" M 264.04 431.13 C 264.04 431.13 177.521 480.136 147.945 589.459 C 123.689 679.014 86.175 812.282 81.687 853.947 C 77.173 895.611 127.425 1139.577 127.425 1139.577 C 127.425 1139.577 134.507 1144.74 151.863 1141.263 C 168.493 1137.943 176.224 1126.684 176.224 1126.684 C 176.224 1126.684 188.235 964.1 185.148 887.335 C 183.851 855.425 332.788 653.72 413.185 627.751 C 444.758 617.53 264.04 431.13 264.04 431.13 Z " fill="rgb(17,205,239)"></path><path d=" M 323.968 373.096 C 323.968 373.096 309.517 380.153 281.499 417.407 C 281.499 417.407 333.67 482.834 408.982 474.299 C 408.982 474.299 399.695 440.392 400.162 418.859 C 400.162 418.859 337.224 411.855 323.968 373.096 Z " fill="rgb(15,185,215)"></path><path d=" M 400.162 418.859 C 400.162 418.859 440.399 429.366 450.05 458.267 C 450.05 458.267 458.559 433.413 451.062 419.352 C 443.538 405.317 427.22 391.049 427.22 391.049 C 427.22 391.049 432.72 408.819 400.162 418.859 Z " fill="rgb(15,185,215)"></path><path d=" M 953.73 257.417 C 953.73 257.417 804.663 253.188 632.661 284.839 L 614.709 239.568 L 594.992 189.94 C 594.992 189.94 767.668 115.614 871.465 12.081 L 953.73 257.417 L 953.73 257.417 Z " fill="rgb(255,255,255)"></path><path d=" M 869.104 9.676 L 954.69 262.294 L 954.69 262.294 C 967.194 258.585 974.043 245.146 969.685 232.849 L 894.372 20.593 C 890.715 10.309 879.092 5.289 869.104 9.676 L 869.104 9.676 L 869.104 9.676 Z " fill="rgb(10,72,179)"></path><path d=" M 953.73 257.417 C 953.73 257.417 804.663 253.188 632.661 284.839 L 614.709 239.568 C 776.307 206.543 953.73 257.417 953.73 257.417 Z " fill="rgb(215,225,255)"></path><path d=" M 680.215 275.733 L 633.647 283.931 C 634.348 283.957 590.375 292.492 575.976 253.5 C 574.653 250.854 573.797 248.207 573.201 245.094 C 561.993 196.503 588.689 187.579 588.689 187.579 L 648.616 164.205 L 667.658 231.604 C 667.658 231.604 667.658 231.604 667.658 231.838 L 680.215 275.733 L 680.215 275.733 Z " fill="rgb(10,72,179)"></path><path d=" M 680.215 275.733 L 633.647 283.931 C 634.348 283.957 590.375 292.492 575.976 253.5 C 602.308 234.354 667.658 231.604 667.658 231.604 C 667.658 231.604 667.658 231.604 667.658 231.838 L 680.215 275.733 L 680.215 275.733 Z " fill="rgb(8,59,145)"></path><path d=" M 787.41 445.425 L 787.41 445.425 C 770.781 448.771 754.437 437.875 751.116 421.22 L 721.646 273.787 C 718.325 257.158 729.221 240.814 745.85 237.493 L 745.85 237.493 C 762.505 234.172 778.849 245.068 782.17 261.698 L 811.615 409.131 C 814.962 425.786 804.066 442.104 787.41 445.425 Z " fill="rgb(215,225,255)"></path><path d=" M 783.441 302.661 C 783.441 302.661 760.664 311.741 764.84 321.781 C 769.017 331.821 797.995 345.623 802.561 337.684 C 807.127 329.772 797.787 294.204 783.441 302.661 Z " fill="rgb(253,168,166)"></path><path d=" M 732.645 386.483 C 732.645 386.483 728.338 363.16 728.079 352.446 C 727.794 341.757 724.707 333.663 727.223 333.352 C 729.739 333.041 731.14 334.908 732.178 338.359 C 733.19 341.809 739.416 362.615 739.416 362.615 L 737.444 383.214 L 732.645 386.483 L 732.645 386.483 Z " fill="rgb(253,168,166)"></path></g><g><path d=" M 1432.567 614.9 C 1432.567 614.9 1309.951 742.014 1304.157 789.864 C 1298.362 837.714 1362.891 912.423 1362.891 912.423 L 1432.567 614.9 Z " fill="rgb(17,32,56)"></path><path d=" M 1487.972 1932.456 C 1487.972 1932.456 1492.301 1999.887 1505.351 2000.826 C 1507.086 2000.943 1571.53 2000.802 1571.53 2000.802 L 1653.795 2000.145 C 1653.795 2000.145 1653.215 1980.329 1629.159 1976.197 C 1605.102 1972.064 1564.815 1955.23 1550.181 1923.487 C 1534.784 1890.077 1487.972 1932.456 1487.972 1932.456 Z " fill="rgb(16,30,54)"></path><path d=" M 1304.739 1932.855 C 1304.739 1932.855 1309.066 2000.286 1322.118 2001.225 C 1323.853 2001.342 1388.298 2001.201 1388.298 2001.201 L 1470.562 2000.544 C 1470.562 2000.544 1469.98 1980.728 1445.924 1976.596 C 1421.867 1972.44 1381.583 1955.629 1366.946 1923.886 C 1351.549 1890.476 1304.739 1932.855 1304.739 1932.855 Z " fill="rgb(16,30,54)"></path><path d=" M 1577.508 1207.409 C 1577.508 1207.409 1556.288 1345.065 1476.556 1589.526 C 1396.823 1833.986 1386.114 1939.781 1386.114 1939.781 L 1300.006 1937.551 C 1300.006 1937.551 1298.691 1670.598 1335.414 1547.663 C 1372.137 1424.752 1342.437 1104.807 1342.437 1104.807 L 1577.508 1207.409 Z " fill="rgb(15,185,215)"></path><path d=" M 1619.199 1111.734 C 1619.199 1111.734 1622.697 1319.098 1587.371 1573.795 C 1552.045 1828.492 1564.442 1936.541 1564.442 1936.541 L 1478.517 1939.57 C 1478.517 1939.57 1426.61 1684.99 1441.057 1557.524 C 1455.505 1430.035 1369.785 1120.374 1369.785 1120.374 L 1619.199 1111.734 Z " fill="rgb(17,205,239)"></path><path d=" M 1451.796 626.828 L 1497.643 656.763 L 1563.785 644.272 C 1562.857 638.943 1558.441 616.802 1554.421 596.775 C 1554.179 595.578 1553.935 594.404 1553.708 593.253 C 1550.263 576.184 1547.288 561.533 1547.288 561.533 L 1485.429 534.415 L 1462.366 524.296 C 1462.427 524.648 1464.193 543.22 1464.439 545.943 C 1468.867 594.075 1451.796 626.828 1451.796 626.828 Z " fill="rgb(253,168,166)"></path><path d=" M 1546.767 611.473 C 1545.481 610.956 1467.036 587.994 1458.525 590.811 C 1450.014 593.652 1445.008 610.134 1445.008 610.134 L 1573.301 638.849 C 1573.301 638.849 1563.165 618.352 1546.767 611.473 Z " fill="rgb(17,32,56)"></path><path d=" M 1336.804 1137.959 C 1350.225 1198.558 1571.396 1205.249 1628.285 1150.098 C 1634.756 1143.829 1635.012 1114.645 1632.481 1075.295 C 1627.529 998.425 1611.918 882.84 1611.19 823.744 C 1610.836 795.217 1606.854 766.056 1601.574 739.572 C 1590.341 683.106 1573.303 638.849 1573.303 638.849 C 1573.303 638.849 1465.207 604.147 1445.008 610.134 C 1347.694 638.966 1323.386 1077.361 1336.804 1137.959 Z " fill="rgb(23,43,77)"></path><path d=" M 1632.481 1075.295 C 1627.529 998.425 1611.918 882.84 1611.19 823.744 C 1610.836 795.217 1606.854 766.056 1601.574 739.572 L 1536.57 728.232 C 1536.57 728.232 1473.603 987.883 1632.481 1075.295 Z " fill="rgb(17,32,56)"></path><path d=" M 1597.061 968.232 C 1597.061 968.232 1592.654 978.821 1601.97 985.911 C 1611.289 993.002 1617.347 1004.506 1615.233 1012.912 C 1613.12 1021.341 1592.748 1035.123 1585.671 1032.916 C 1578.593 1030.709 1564.172 1019.674 1565.714 1015.213 C 1567.252 1010.775 1555.945 976.285 1573.16 962.972 C 1590.374 949.637 1597.061 968.232 1597.061 968.232 Z " fill="rgb(255,178,125)"></path><path d=" M 1523.652 623.4 C 1523.652 623.4 1587.05 635.116 1637.707 709.426 C 1688.363 783.712 1721.705 838.981 1712.461 865.818 C 1703.218 892.654 1618.631 985.864 1604.013 985.888 C 1589.397 985.911 1565.785 975.346 1564.402 951.421 C 1564.402 951.421 1620.253 858.445 1608.465 845.086 C 1603.426 839.357 1534.476 784.065 1524.188 810.666 C 1507.163 854.665 1523.652 623.4 1523.652 623.4 Z " fill="rgb(23,43,77)"></path><path d=" M 1469.078 546.765 C 1482.698 569.727 1533.314 589.496 1554.421 596.775 C 1554.179 595.578 1553.935 594.404 1553.708 593.253 C 1550.263 576.184 1547.288 561.533 1547.288 561.533 L 1485.429 534.415 C 1471.769 534.251 1463.46 537.327 1469.078 546.765 Z " fill="rgb(228,151,149)"></path><path d=" M 1570.575 557.73 C 1570.575 557.73 1471.093 589.003 1452.575 526.761 C 1434.055 464.501 1408.743 426.61 1471.476 404.015 C 1534.208 381.416 1553.672 401.481 1564.907 420.757 C 1576.141 440.031 1595.976 547.986 1570.575 557.73 Z " fill="rgb(253,168,166)"></path><path d=" M 1560.984 414.766 C 1560.984 414.766 1554.795 487.265 1539.796 484.15 C 1524.798 481.036 1511.197 478.733 1513.439 500.578 C 1515.684 522.418 1536.526 547.61 1490.336 551.578 C 1444.144 555.546 1377.472 436.544 1390.115 413.958 C 1426.591 348.79 1613.74 335.248 1560.984 414.766 Z " fill="rgb(16,30,54)"></path></g></svg>